<?xml version="1.0" encoding="UTF-8"?>
<svg
   width="239.90959mm"
   height="72.242165mm"
   viewBox="0 0 239.90959 72.242165"
   xmlns:svg="http://www.w3.org/2000/svg">
  <g transform="translate(38.36458,-107.42083)">
    <path class="logo-code" d="m -13.637147,155.51843 c 0.0021,-0.0417 0.302803,-1.02822 0.668039,-2.19239 0.365236,-1.16417 1.08308,-3.59325 1.595204,-5.39796 0.512128,-1.80471 1.168715,-3.8028 1.4590822,-4.4402 0.7545282,-1.65628 2.4694012,-8.4269 3.0200891,-11.92382 0.4687437,-2.97656 0.4687437,-2.97656 2.5497234,-2.97656 1.1445372,0 2.1702738,0.0298 2.2794145,0.0661 0.4394173,0.14648 -0.031374,3.49122 -1.1079374,7.87136 -0.6259142,2.54661 -1.392346,5.70177 -1.7031785,7.01146 -0.3108325,1.30968 -1.0509673,3.69093 -1.6447426,5.29166 -0.5937752,1.60073 -1.2862348,3.74386 -1.5387955,4.7625 -0.4592055,1.85209 -0.4592055,1.85209 -3.0200362,1.92781 -1.408456,0.0417 -2.559045,0.0417 -2.556862,0 z m 15.8718224,-5.71974 c -5.292e-4,-0.0483 0.4011004,-0.58405 0.892302,-1.19062 0.4912016,-0.60658 1.1162797,-1.50537 1.3890625,-1.99731 0.6902979,-1.24491 0.9378526,-1.6408 1.6204485,-2.59147 0.3274219,-0.45601 0.5953125,-0.90829 0.5953125,-1.00507 0,-0.0968 -1.190625,-1.35006 -2.6458333,-2.78505 -1.4552083,-1.435 -2.644984,-2.76619 -2.6439442,-2.95819 0.00132,-0.26675 0.6558836,-0.34911 2.7742197,-0.34911 2.7723306,0 2.7723306,0 5.6866525,2.89786 1.6028774,1.59382 2.9143214,3.05744 2.9143214,3.25248 0,0.19504 -0.513228,0.91507 -1.140507,1.60006 -1.66202,1.81493 -2.9647119,3.50419 -3.4710159,4.50103 -0.4440873,0.87434 -0.4440873,0.87434 -3.2071574,0.79375 -1.5196873,-0.0443 -2.7634248,-0.12009 -2.7638613,-0.16836 z m -28.7080824,-3.21654 -3.175,-3.20046 3.152135,-3.03011 c 3.152132,-3.03012 3.152132,-3.03012 6.139444,-2.99276 3.544136,0.0443 3.57119,-0.25254 -0.339143,3.72154 -2.588754,2.63095 -2.588754,2.63095 -1.008097,4.13103 0.869363,0.82504 2.336041,2.07422 3.259283,2.77596 0.923243,0.70174 1.637618,1.31213 1.5875,1.35643 -0.05012,0.0443 -1.519872,0.16115 -3.266122,0.25968 -3.175,0.17915 -3.175,0.17915 -6.35,-3.02131 z m 85.147133,18.43157 c -3.313575,-1.22167 -5.517618,-4.93942 -6.601063,-11.1346 -0.577924,-3.30459 -0.796126,-15.14916 -0.364935,-19.80963 0.543328,-5.87243 1.836018,-9.71864 3.685226,-10.96482 1.613447,-1.0873 5.148341,-0.70452 8.318391,0.90076 1.873586,0.94877 3.476212,2.74424 4.650634,5.21026 1.616975,3.39526 1.870297,4.81468 2.178071,12.2041 0.414031,9.94062 -0.10619,14.71124 -2.052706,18.82411 -1.057709,2.23488 -2.920272,4.06357 -4.786503,4.69946 -1.428112,0.48661 -3.807788,0.51991 -5.027115,0.0704 z m 3.443396,-5.10037 c 2.03141,-2.03141 3.225848,-10.01401 2.569247,-17.17064 -0.173567,-1.89177 -0.408636,-5.28793 -0.52238,-7.54703 -0.147013,-2.91988 -0.3297,-4.34509 -0.631867,-4.92942 -0.921409,-1.7818 -3.158726,-2.88775 -4.55494,-2.25159 -1.129946,0.51483 -1.390018,2.28277 -1.58274,10.75929 -0.116269,5.11376 -0.07175,8.776 0.133466,10.98021 0.472435,5.07425 1.45491,9.33017 2.423197,10.49689 0.463336,0.55829 1.419027,0.40928 2.166017,-0.33771 z m -21.637757,4.76184 c -3.919051,-0.94777 -5.827797,-3.34824 -6.920505,-8.70332 -0.89076,-4.36538 -0.704466,-19.38471 0.292872,-23.61207 0.473245,-2.00592 1.630032,-4.57655 2.729786,-6.06617 1.525778,-2.06667 6.660758,-3.93369 9.40376,-3.4191 2.21184,0.41494 3.053691,2.86942 1.512707,4.4104 -0.707741,0.70775 -0.930888,0.7734 -2.628608,0.7734 -2.48398,0 -3.03049,0.25054 -3.73897,1.71406 -1.251538,2.58534 -1.636551,6.31254 -1.681443,16.27761 -0.03065,6.80367 0.04593,9.41535 0.300741,10.25608 0.752703,2.48349 3.023346,3.91712 5.112221,3.22773 3.660354,-1.20803 5.223901,3.70967 1.653741,5.20138 -1.106617,0.46237 -3.994989,0.43366 -6.036302,-0.06 z m 60.047225,0.0537 c -1.71335,-0.75629 -1.823535,-1.08484 -2.034747,-6.06739 -0.105888,-2.49795 -0.152417,-10.8596 -0.103396,-18.58143 0.09747,-15.35301 0.05946,-14.98289 1.669833,-16.26077 0.67085,-0.53234 0.94567,-0.57032 3.24644,-0.44858 5.95063,0.31487 9.12838,2.65268 7.01681,5.16214 -1.09074,1.29627 -1.96449,1.51467 -4.00709,1.00159 -0.96391,-0.24213 -1.78301,-0.40542 -1.82021,-0.36287 -0.0372,0.0425 -0.15324,2.13119 -0.25785,4.64142 -0.19021,4.56406 -0.19021,4.56406 1.29964,4.56406 3.24029,0 4.88224,1.72476 3.74166,3.93038 -0.50954,0.98536 -1.44862,1.36105 -3.40573,1.36252 -1.64119,0.001 -1.64119,0.001 -1.72274,8.0698 -0.0815,8.06855 -0.0815,8.06855 2.56724,8.06855 3.07069,0 3.80629,0.25519 4.41139,1.53033 0.40752,0.8588 0.40829,0.99493 0.0103,1.82943 -0.72603,1.52249 -2.02567,1.92111 -6.24597,1.91574 -2.37914,-0.003 -3.83693,-0.12154 -4.36563,-0.35492 z M 77.258056,163.9482 c -1.221893,-1.22189 -1.34493,-2.74616 -1.252505,-15.51697 0.0658,-9.09251 -0.01172,-12.96986 -0.340461,-17.025 -0.234116,-2.88807 -0.348382,-5.50744 -0.253923,-5.82083 0.263178,-0.87313 1.422384,-1.97973 2.418072,-2.30834 1.889646,-0.62364 6.30653,0.74013 8.725926,2.69424 2.692668,2.17482 5.158196,6.23279 6.042131,9.94462 0.391116,1.64238 0.435293,2.91682 0.320999,9.26041 -0.14472,8.03232 -0.413872,9.8142 -1.93621,12.81839 -0.961484,1.8974 -3.758082,4.74247 -5.656034,5.75406 -1.46034,0.77836 -1.699096,0.82203 -4.493834,0.82203 -2.746433,0 -2.994824,-0.0433 -3.574161,-0.62261 z m 6.939378,-5.71081 c 2.235375,-2.23538 3.423283,-7.87751 3.150877,-14.96554 -0.297412,-7.73868 -1.714725,-12.54114 -4.120596,-13.96232 -0.42594,-0.25161 -0.887811,-0.45747 -1.02638,-0.45747 -0.439036,0 -0.595111,4.4548 -0.338346,9.65729 0.136459,2.7649 0.396796,8.50966 0.578529,12.76615 0.24556,5.75141 0.413679,7.73906 0.654583,7.73906 0.178288,0 0.673888,-0.34973 1.101333,-0.77717 z" />
    <path class="logo-hood" d="m -5.4390323,172.69046 c 4.97053653,-3.29402 7.2610344,-4.90554 12.3031249,-8.65606 0.7276041,-0.54123 3.2373994,-2.1282 5.5773214,-3.52661 2.339922,-1.3984 4.432779,-2.75293 4.650793,-3.01007 0.385477,-0.45464 0.906314,-3.87557 1.199105,-7.87585 0.07456,-1.01864 0.227581,-2.80458 0.34005,-3.96875 0.112472,-1.16416 0.223949,-5.95769 0.247729,-10.65228 0.04324,-8.53562 0.04324,-8.53562 -0.694213,-8.81227 -0.405599,-0.15216 -2.404327,-1.1138 -4.441619,-2.13697 -2.037292,-1.02318 -4.4185415,-2.13297 -5.2916665,-2.46619 -2.6631899,-1.01641 -4.6818576,-2.05418 -6.4377093,-3.30956 -2.4910626,-1.78103 -4.9693617,-3.32408 -7.1230939,-4.43501 -1.5260055,-0.78713 -2.0138019,-0.93089 -2.3812499,-0.70176 -0.2541641,0.15848 -3.2005504,1.6904 -6.5475304,3.40426 -6.945113,3.55632 -8.301772,4.2954 -10.76145,5.86259 -0.97109,0.61873 -2.816559,1.68255 -4.101042,2.36404 -1.284483,0.68149 -2.417818,1.31321 -2.518524,1.40382 -0.100703,0.0906 -0.365786,1.83163 -0.589076,3.86892 -0.428993,3.91413 -0.564795,4.83021 -1.000183,6.74687 -0.148754,0.65485 -0.321292,5.61218 -0.383413,11.0163 -0.112951,9.82567 -0.112951,9.82567 0.889119,10.61778 0.873665,0.69062 7.44301,5.1064 9.758368,6.55938 0.450339,0.28261 2.533933,1.65879 4.630208,3.05819 3.669051,2.44932 9.7360844,5.77275 10.5582851,5.78368 0.2182812,0.003 1.1707812,-0.5076 2.1166666,-1.13445 z M 144.13634,164.93132 c -2.38274,-0.8443 -4.37264,-3.39763 -5.61292,-7.20219 -1.12713,-3.45749 -1.47814,-7.04 -1.48134,-15.11871 -0.003,-8.29249 0.31148,-11.83887 1.33969,-15.0937 0.74952,-2.37266 1.49751,-3.57396 2.76466,-4.44011 0.82588,-0.56453 1.11301,-0.61299 2.8135,-0.47476 4.83714,0.39318 8.22617,2.89507 10.14538,7.48964 1.42739,3.41718 1.61236,4.81473 1.76192,13.31268 0.14759,8.38596 -0.0827,11.1874 -1.22138,14.85633 -1.65019,5.31722 -6.1926,8.20047 -10.50951,6.67082 z m 3.52909,-4.91319 c 0.68421,-0.62558 1.5364,-2.82599 2.0794,-5.36917 0.65148,-3.05126 0.76978,-8.91926 0.28898,-14.33449 -0.23485,-2.64522 -0.42768,-5.62178 -0.42849,-6.61458 -0.002,-2.58231 -0.34977,-3.55808 -1.7166,-4.81798 -1.01392,-0.9346 -1.34666,-1.08816 -2.35785,-1.08816 -1.51929,0 -2.11377,0.71434 -2.51582,3.02306 -0.41412,2.37804 -0.4468,17.08115 -0.0453,20.39256 0.59707,4.9248 1.80221,9.11235 2.72739,9.47706 0.50444,0.19885 1.32435,-0.0795 1.96831,-0.6683 z m 19.75424,4.92934 c -3.29362,-1.21521 -5.58074,-5.25226 -6.58391,-11.62143 -0.64985,-4.12591 -0.79376,-13.9052 -0.28287,-19.22262 0.61711,-6.42309 1.7155,-9.56139 3.84985,-10.99973 1.50604,-1.01492 4.47148,-0.68012 7.61021,0.85919 3.84849,1.8874 6.20391,6.04876 6.95676,12.29059 0.34812,2.88624 0.35038,14.33211 0.003,17.09953 -0.7459,5.94869 -2.84052,9.86933 -6.02539,11.27815 -1.58844,0.70264 -4.09259,0.84593 -5.52802,0.31632 z m 3.54953,-4.94855 c 0.32593,-0.29828 0.84244,-1.20733 1.1478,-2.02011 1.46517,-3.89986 1.84593,-9.56736 1.21026,-18.01423 -0.23545,-3.1287 -0.46473,-6.47961 -0.50951,-7.44647 -0.0645,-1.39302 -0.22898,-1.97086 -0.79226,-2.78368 -0.90623,-1.30769 -1.98336,-1.94068 -3.30236,-1.94068 -2.13356,0 -2.44908,1.04076 -2.68711,8.86354 -0.3081,10.12606 0.19605,16.94508 1.58537,21.44317 0.85456,2.76676 1.80815,3.30752 3.34781,1.89846 z m -43.50583,4.83395 c -0.31894,-0.12846 -0.79519,-0.56203 -1.05833,-0.96348 -0.49203,-0.75063 -0.48809,-0.65742 -0.84989,-20.11347 -0.024,-1.29193 -0.0689,-1.37758 -0.80617,-1.53952 -0.4294,-0.0943 -1.33848,-0.0878 -2.02016,0.0144 -1.23944,0.18587 -1.23944,0.18587 -1.09222,2.99473 0.081,1.54487 0.35159,5.92495 0.60138,9.73352 0.44625,6.80421 0.44522,6.93995 -0.0593,7.80375 -0.58165,0.99592 -1.53903,1.43705 -2.56174,1.18036 -2.60584,-0.65402 -3.77402,-10.97695 -4.06266,-35.9006 -0.15798,-13.64182 -0.15798,-13.64182 0.57877,-14.22135 0.93717,-0.73718 1.83661,-0.73291 3.3213,0.0158 1.18054,0.59532 1.18054,0.59532 1.20318,4.16719 0.0125,1.96453 0.11573,7.4814 0.22951,12.25971 0.20687,8.68784 0.20687,8.68784 0.77111,8.53643 0.31034,-0.0833 1.26741,-0.15304 2.12683,-0.15503 1.56258,-0.004 1.56258,-0.004 1.40994,-7.87901 -0.095,-4.89952 -0.0556,-8.04884 0.10421,-8.33438 0.35302,-0.63082 1.46974,-0.57807 2.88647,0.13634 1.62236,0.81811 2.10475,1.86181 2.10944,4.56407 0.002,1.16416 0.17597,5.43444 0.38656,9.48949 0.74618,14.36854 1.02701,25.49703 0.66545,26.36992 -0.69527,1.67853 -2.34539,2.46081 -3.88371,1.84117 z m 58.95143,-0.69349 c -1.45717,-1.02065 -1.46362,-1.08873 -1.66258,-17.56021 -0.10107,-8.36745 -0.26605,-16.53374 -0.36661,-18.1473 -0.20498,-3.28904 -0.0637,-3.79615 1.28755,-4.62004 1.74641,-1.06486 5.5675,-0.36976 8.54447,1.55435 2.79756,1.80816 5.36731,5.34961 6.65714,9.17444 0.71379,2.11667 0.71379,2.11667 0.63698,9.6573 -0.0875,8.58772 -0.33464,10.42694 -1.80959,13.46586 -1.16043,2.39091 -3.49589,4.81972 -5.81473,6.04716 -1.51631,0.80263 -1.79872,0.85989 -4.24057,0.85989 -1.99036,0 -2.7634,-0.10319 -3.23206,-0.43145 z m 6.54371,-5.75954 c 0.86689,-0.77537 1.82654,-2.75941 2.48871,-5.14532 0.50016,-1.80215 0.56269,-2.72438 0.56787,-8.37515 0.005,-5.50192 -0.0687,-6.68569 -0.55207,-8.86354 -0.64889,-2.92354 -1.30679,-4.55388 -2.32688,-5.76618 -0.71985,-0.85549 -2.18706,-1.79763 -2.42654,-1.55815 -0.49351,0.49351 -0.10378,18.9802 0.60448,28.67306 0.15213,2.08205 0.3411,2.20102 1.64443,1.03528 z M -9.5400739,178.68709 c -1.0186461,-0.63169 -3.5189581,-1.98693 -5.5562501,-3.01164 -2.298271,-1.15597 -4.859009,-2.71945 -6.746875,-4.11936 -1.673489,-1.24094 -3.935677,-2.81064 -5.027083,-3.48822 -1.091406,-0.67758 -3.244247,-2.06903 -4.78409,-3.09211 -1.539843,-1.02307 -3.653203,-2.30884 -4.696354,-2.85726 -2.08643,-1.0969 -1.926069,-0.12197 -2.012029,-12.23204 -0.03438,-4.84388 0.423836,-14.89594 0.792924,-17.39462 0.209439,-1.41787 0.380799,-3.33467 0.380799,-4.25956 0,-3.33939 0.315939,-5.76876 0.768456,-5.9089 1.948262,-0.60336 6.024988,-2.54009 9.153419,-4.3485 1.309687,-0.75707 3.155156,-1.82257 4.101042,-2.36776 3.145932,-1.81329 15.9279425,-8.18629 16.4188213,-8.18629 0.2658057,0 0.5542545,0.11484 0.6410008,0.2552 0.1780249,0.28805 4.2890016,2.62709 7.9135948,4.50262 1.3260255,0.68615 3.4229886,1.87097 4.6599157,2.63292 1.9725031,1.21507 4.6430454,2.57126 11.7739584,5.97918 1.018646,0.48682 2.685521,1.23074 3.704166,1.65314 1.852084,0.76802 1.852084,0.76802 1.874713,10.66571 0.01244,5.44373 -0.07315,11.26691 -0.190203,12.9404 -0.29092,4.15899 -0.783164,10.02463 -0.886145,10.55937 -0.04654,0.24166 -0.167138,1.09984 -0.267991,1.90706 -0.179912,1.43995 -0.218459,1.49443 -2.040922,2.8843 -1.021652,0.77914 -1.992694,1.55121 -2.157876,1.71572 -0.165179,0.1645 -1.351587,0.91965 -2.636459,1.67811 -2.387729,1.40948 -2.552644,1.51445 -5.390001,3.43069 -0.9023963,0.60945 -1.6934528,1.10808 -1.7579053,1.10808 -0.3008577,0 -6.337292,4.24342 -6.7878351,4.77163 -0.221734,0.25996 -3.6292578,2.6367 -3.7802237,2.6367 -0.1243463,0 -2.5155551,1.3082 -4.8187345,2.63626 -0.7928001,0.45714 -0.7959699,0.45632 -2.6458333,-0.69083 z" />
  </g>
</svg>
