<?xml version="1.0" encoding="UTF-8" standalone="no"?>
<!-- Created with Inkscape (http://www.inkscape.org/) -->

<svg
   width="61.639717mm"
   height="21.09811mm"
   viewBox="0 0 218.40844 74.757082"
   id="svg3666"
   version="1.1"
   inkscape:version="1.4 (e7c3feb100, 2024-10-09)"
   sodipodi:docname="logo.svg"
   xmlns:inkscape="http://www.inkscape.org/namespaces/inkscape"
   xmlns:sodipodi="http://sodipodi.sourceforge.net/DTD/sodipodi-0.dtd"
   xmlns="http://www.w3.org/2000/svg"
   xmlns:svg="http://www.w3.org/2000/svg"
   xmlns:rdf="http://www.w3.org/1999/02/22-rdf-syntax-ns#"
   xmlns:cc="http://creativecommons.org/ns#"
   xmlns:dc="http://purl.org/dc/elements/1.1/">
  <defs
     id="defs3668" />
  <sodipodi:namedview
     id="base"
     pagecolor="#ffffff"
     bordercolor="#666666"
     borderopacity="1.0"
     inkscape:pageopacity="0.0"
     inkscape:pageshadow="2"
     inkscape:zoom="2.9027174"
     inkscape:cx="131.94533"
     inkscape:cy="16.191724"
     inkscape:document-units="px"
     inkscape:current-layer="layer1"
     showgrid="false"
     inkscape:window-width="1920"
     inkscape:window-height="981"
     inkscape:window-x="0"
     inkscape:window-y="0"
     inkscape:window-maximized="1"
     fit-margin-top="0"
     fit-margin-left="0"
     fit-margin-right="0"
     fit-margin-bottom="0"
     inkscape:showpageshadow="2"
     inkscape:pagecheckerboard="0"
     inkscape:deskcolor="#d1d1d1" />
  <metadata
     id="metadata3671">
    <rdf:RDF>
      <cc:Work
         rdf:about="">
        <dc:format>image/svg+xml</dc:format>
        <dc:type
           rdf:resource="http://purl.org/dc/dcmitype/StillImage" />
      </cc:Work>
    </rdf:RDF>
  </metadata>
  <g
     inkscape:label="Camada 1"
     inkscape:groupmode="layer"
     id="layer1"
     transform="translate(-325.29904,-354.87174)">
    <g
       id="g3591"
       transform="matrix(0.33433275,-0.03517512,0.05489536,0.33225797,356.13968,460.07478)">
      <path
         id="path3593"
         style="font-style:normal;font-variant:normal;font-weight:normal;font-stretch:normal;font-size:medium;line-height:125%;font-family:Pacifico;-inkscape-font-specification:Pacifico;letter-spacing:0px;word-spacing:0px;fill:#000000;fill-opacity:1;stroke:none;stroke-width:1px;stroke-linecap:butt;stroke-linejoin:miter;stroke-opacity:1"
         d="m -38.654267,-238.00942 q 0.865972,-5.60003 2.944328,-10.2763 2.078355,-4.67633 5.022739,-8.02481 3.002062,-3.40621 6.696948,-5.25368 3.694828,-1.84741 7.851596,-1.84741 2.078355,0 5.022682,0.17298 2.9443842,0.1157 6.1196524,0.69276 3.1752682,0.57736 6.2928012,1.67427 3.1752682,1.09691 5.7155054,3.00206 0.8082367,0.63509 1.154648,1.5588 0.404374,0.86597 0.404374,1.84741 0,1.32785 -0.577296,2.71344 -0.5195038,1.32786 -1.5010596,2.42477 -0.9237072,1.09691 -2.1938258,1.84742 -1.2701186,0.69282 -2.7711782,0.69282 -1.3855324,0 -3.3484739,-0.28868 -1.9051496,-0.28867 -4.1567106,-0.63509 -2.1938258,-0.34652 -4.5031219,-0.63503 -2.251561,-0.28867 -4.329917,-0.28867 -1.847471,0 -3.348473,0.7505 -1.50106,0.69276 -2.713443,2.71344 -1.212384,1.96289 -2.251561,5.48457 -1.039178,3.46394 -1.90515,9.06398 -0.692823,4.32991 -1.50106,8.65983 -0.750501,4.27218 -2.193825,8.0248 -1.38559,3.69488 -3.752621,6.52374 -2.309296,2.82892 -6.119595,4.21445 2.309296,0.57735 3.868034,1.9052 1.558795,1.3278 2.482502,3.23301 0.923707,1.84741 1.270119,4.21444 0.404373,2.3093 0.404373,4.90727 0,3.29074 -0.461655,6.98563 -0.404374,3.63709 -0.923707,7.15877 -0.461655,3.52168 -0.923707,6.63921 -0.404374,3.05986 -0.404374,5.08048 0,2.42476 0.346525,3.9835 0.404374,1.5588 1.096913,2.4825 0.692766,0.98144 1.674209,1.32786 1.039177,0.40437 2.367031,0.40437 2.078355,0 3.925826,-0.69277 1.847415,-0.63508 3.579415,-1.44332 1.789679,-0.80824 3.463945,-1.44332 1.731944,-0.69277 3.521623,-0.69277 0.981499,0 1.962941,0.34652 0.981443,0.34653 1.731944,1.09692 0.7505014,0.7505 1.2123834,1.90515 0.4616551,1.15464 0.4616551,2.71344 0,0.86597 -0.1729789,1.90515 -0.2886762,1.96288 -2.0206196,3.52168 -1.674266,1.61647 -4.156711,2.82886 -2.482502,1.27011 -5.426886,2.13609 -2.944327,0.86602 -5.715505,1.44332 -2.771122,0.57735 -5.022683,0.86597 -2.251561,0.28868 -3.406209,0.28868 -3.52168,0 -6.292858,-1.38553 -2.771121,-1.38559 -4.676271,-3.98357 -1.905206,-2.54023 -2.944384,-6.11959 -0.981442,-3.52168 -0.981442,-7.8516 0,-4.84953 0.923707,-10.04548 0.981442,-5.25362 1.847471,-10.33404 0.115697,-0.86603 0.172979,-1.732 0.115697,-0.9237 0.115697,-1.90515 0,-2.07835 -0.461655,-4.04129 -0.404374,-2.02062 -1.443324,-3.57936 -1.039178,-1.5588 -2.771179,-2.54024 -1.731943,-0.98144 -4.329916,-0.98144 -2.367031,0 -3.406209,-1.732 -1.039178,-1.78968 -1.039178,-4.21445 0,-1.78968 0.519504,-3.63715 0.519504,-1.90515 1.443324,-3.40621 0.923707,-1.55874 2.193826,-2.54023 1.327854,-1.03918 2.886592,-1.09692 3.694885,-0.0579 6.004182,-0.98144 2.367031,-0.98144 3.810356,-2.82886 1.443267,-1.84747 2.251561,-4.56085 0.808236,-2.77118 1.385532,-6.40828 v -12.00836 z"
         inkscape:connector-curvature="0" />
      <path
         inkscape:connector-curvature="0"
         id="path3595"
         d="m 98.312066,-305.86812 c -29.728886,0.9195 -54.761823,21.70581 -71.06882,45.09199 -22.4473874,32.55557 -37.327186,72.67609 -31.9507148,112.63262 4.49592393,25.01275 22.8833768,49.566137 49.0833238,53.826897 24.949676,3.54506 50.846631,-3.10587 72.303395,-15.926507 19.55225,-12.46319 34.25159,-31.02127 52.88868,-44.55469 1.79901,-3.57926 0.37234,-7.92114 0.70117,-11.83594 0.84026,-6.16858 -4.37311,-0.82304 -7.25781,0.38086 -27.85896,16.47234 -50.69156,43.13406 -83.208993,50.44727 -18.069118,4.57293 -41.257894,2.89922 -52.673828,-13.84571 -14.039183,-20.74808 -9.989722,-47.56473 -4.19655,-70.45293 7.993153,-30.62518 22.330423,-61.54159 48.262956,-80.96699 12.966354,-8.75284 32.952675,-12.23126 45.101565,-0.27539 13.03607,14.38616 8.74754,37.63182 -3.10351,51.41602 -9.96104,12.2126 -27.018191,19.86401 -42.537117,14.83203 -4.703903,0.25329 -2.961854,6.2518 -3.351563,9.30859 -0.08562,4.92382 3.963412,9.4903 9.107422,8.76953 21.638964,2.59166 40.936838,-12.51422 52.320318,-29.58984 12.85594,-18.11243 17.28507,-44.96834 3.19726,-63.66016 -7.80381,-10.23772 -20.84968,-15.92102 -33.617184,-15.59765 z"
         style="font-style:normal;font-variant:normal;font-weight:normal;font-stretch:normal;font-size:medium;line-height:125%;font-family:Pacifico;-inkscape-font-specification:Pacifico;letter-spacing:0px;word-spacing:0px;fill:#000000;fill-opacity:1;stroke:none;stroke-width:1px;stroke-linecap:butt;stroke-linejoin:miter;stroke-opacity:1" />
      <path
         id="path3597"
         style="font-style:normal;font-variant:normal;font-weight:normal;font-stretch:normal;font-size:medium;line-height:125%;font-family:Pacifico;-inkscape-font-specification:Pacifico;letter-spacing:0px;word-spacing:0px;fill:#000000;fill-opacity:1;stroke:none;stroke-width:1px;stroke-linecap:butt;stroke-linejoin:miter;stroke-opacity:1"
         d="m 161.73832,-201.34935 q 1.67421,3.34847 2.4825,7.10109 0.86597,3.69483 0.86597,7.10104 0,3.40621 -0.7505,6.87015 -0.75056,3.46395 -2.19388,6.69695 -1.38553,3.23306 -3.46389,6.06192 -2.02068,2.82885 -4.67633,4.90726 -2.59797,2.07836 -5.7155,3.29074 -3.11754,1.21239 -6.63921,1.21239 -5.08048,0 -8.71763,-2.19383 -3.57936,-2.25156 -5.88865,-5.83098 -2.3093,-3.57941 -3.40621,-8.08253 -1.03918,-4.50312 -1.03918,-9.12172 0,-6.35053 1.90515,-11.83515 1.90515,-5.5423 5.42683,-9.58354 3.57941,-4.09898 8.71757,-6.40828 5.13821,-2.36703 11.54648,-2.36703 5.48456,0 10.27636,1.73195 4.7918,1.67426 8.94851,4.56085 4.21444,2.82892 7.79386,6.52375 3.63715,3.69488 6.75468,7.62071 l -1.09691,8.14021 q -1.55879,-2.07835 -4.21445,-4.50312 -2.6557,-2.42471 -5.65777,-4.73401 -2.94438,-2.30929 -5.83097,-4.32991 -2.88659,-2.07841 -4.96495,-3.46395 l -0.46222,0.63504 z m -17.83928,32.15688 q 1.96288,0 3.8103,-1.96288 1.84747,-2.02062 3.233,-5.02269 1.38559,-3.05985 2.19382,-6.69694 0.86603,-3.69489 0.86603,-7.04336 0,-2.65571 -0.40437,-4.90727 -0.40437,-2.3093 -1.21238,-3.98351 -0.80824,-1.67426 -2.07836,-2.65571 -1.27012,-0.98144 -3.0598,-0.98144 -2.36703,0 -4.50318,2.02062 -2.13609,2.02062 -3.75256,5.19595 -1.61653,3.11753 -2.54024,6.92783 -0.9237,3.81036 -0.9237,7.33203 0,2.42477 0.46165,4.56086 0.46166,2.13609 1.44333,3.75262 0.98144,1.55874 2.59791,2.54018 1.61653,0.92371 3.86809,0.92371 z"
         inkscape:connector-curvature="0" />
      <path
         id="path3599"
         style="font-style:normal;font-variant:normal;font-weight:normal;font-stretch:normal;font-size:medium;line-height:125%;font-family:Pacifico;-inkscape-font-specification:Pacifico;letter-spacing:0px;word-spacing:0px;fill:#000000;fill-opacity:1;stroke:none;stroke-width:1px;stroke-linecap:butt;stroke-linejoin:miter;stroke-opacity:1"
         d="m 202.03548,-201.7535 q -3.81036,1.84747 -6.81242,4.90727 -2.94439,3.00206 -4.96501,6.52374 -1.96288,3.52168 -3.00206,7.10109 -1.03918,3.57942 -1.03918,6.46601 0,1.15465 0.23083,2.3093 0.28868,1.15464 0.98144,2.07835 0.69277,0.92371 1.96289,1.50106 1.27012,0.5773 3.29074,0.5773 1.03917,0 2.02062,-0.51951 1.03918,-0.5195 1.96294,-1.32779 0.92371,-0.86603 1.73194,-1.90521 0.86597,-1.09691 1.5588,-2.25156 1.61647,-2.65565 2.94432,-6.00412 -0.17297,-0.8083 -0.28867,-2.54024 -0.1157,-1.78974 -0.17298,-3.92583 -0.0579,-2.19383 -0.11513,-4.50312 -0.0579,-2.3093 -0.1157,-4.21445 0,-1.90515 -0.0579,-3.11753 -0.0579,-1.21238 -0.11569,-1.15465 z m 39.71986,32.33015 q -4.09903,3.17526 -8.08254,5.65777 -1.67426,1.03917 -3.52168,2.07835 -1.84747,0.98144 -3.63715,1.78968 -1.78968,0.75056 -3.52168,1.27012 -1.67421,0.46165 -3.11753,0.46165 -0.80824,0 -2.42477,-0.34652 -1.55879,-0.34653 -3.46394,-1.38559 -1.84742,-1.09691 -3.75262,-3.11753 -1.84742,-2.02062 -3.23301,-5.3691 -2.13609,2.07836 -4.56085,3.98351 -2.36698,1.84747 -4.96495,3.233 -2.54024,1.38559 -5.19595,2.25156 -2.59791,0.8083 -5.25362,0.8083 -3.75262,0 -6.52374,-1.61653 -2.71344,-1.61648 -4.56086,-4.27218 -1.78973,-2.71345 -2.71344,-6.11966 -0.86597,-3.40621 -0.86597,-7.0433 0,-3.69489 0.9237,-7.44751 0.98145,-3.81029 2.77118,-7.33197 1.84742,-3.57942 4.44539,-6.69695 2.59797,-3.17527 5.88871,-5.60004 3.29074,-2.4825 7.15877,-4.09903 3.86809,-1.61647 8.25575,-2.02062 0.17297,-7.38971 1.32785,-14.60628 1.15465,-7.21656 3.0598,-13.74031 1.90515,-6.52374 4.44538,-12.06604 2.59798,-5.5423 5.65777,-9.58359 3.0598,-4.04124 6.52375,-6.2928 3.46394,-2.3093 7.15883,-2.3093 2.71344,0 4.61859,1.44332 1.90515,1.38559 3.0598,3.75257 1.21238,2.30929 1.732,5.42688 0.5195,3.0598 0.5195,6.35054 0,2.02062 -0.17298,4.15671 -0.7505,8.14027 -2.77112,15.41457 -2.02062,7.21651 -4.73406,14.08666 -2.71345,6.87016 -5.88871,13.62484 -3.17527,6.75468 -6.17733,14.02898 -0.28868,0.80824 -0.57736,1.96289 -0.28867,1.15465 -0.57729,2.54024 -0.23083,1.32779 -0.40438,2.77112 -0.17298,1.38559 -0.17298,2.71344 0,1.67421 0.17298,3.17527 0.23083,1.50106 0.69277,2.71344 0.46165,1.15465 1.21238,1.84742 0.8083,0.69276 1.96294,0.69276 1.09692,0 2.36704,-0.40437 1.32779,-0.46166 2.77112,-1.21238 1.44332,-0.75051 2.88665,-1.67421 1.501,-0.98145 2.88659,-1.96289 3.17527,-2.30929 6.63921,-5.25368 l 1.732,13.33616 z m -12.58566,-74.1861 q 0.34652,-4.04124 0.34652,-6.40828 0,-3.11753 -0.57729,-4.32991 -0.51951,-1.21238 -1.5588,-1.21238 -1.84741,0 -3.34847,2.36703 -1.501,2.30929 -2.65565,5.94644 -1.15465,3.6371 -2.02068,8.0248 -0.86597,4.38766 -1.44327,8.48663 -0.57735,4.09898 -0.9237,7.38977 -0.34653,3.29074 -0.46166,4.67627 -0.23083,2.82892 -0.40437,5.48462 -0.1157,2.59792 -0.17298,4.79175 -0.0579,2.13609 -0.0579,3.75262 0,1.61647 0,2.4825 v 0.57729 q 3.2908,-7.50518 6.06192,-14.95269 1.15465,-3.17526 2.30929,-6.63921 1.21239,-3.52168 2.19383,-7.0433 0.98144,-3.52168 1.67427,-6.92789 0.7505,-3.40621 1.03917,-6.46606 z"
         inkscape:connector-curvature="0" />
      <path
         id="path3601"
         style="font-style:normal;font-variant:normal;font-weight:normal;font-stretch:normal;font-size:medium;line-height:125%;font-family:Pacifico;-inkscape-font-specification:Pacifico;letter-spacing:0px;word-spacing:0px;fill:#000000;fill-opacity:1;stroke:none;stroke-width:1px;stroke-linecap:butt;stroke-linejoin:miter;stroke-opacity:1"
         d="m 258.03583,-158.10781 q -5.42683,0 -9.52581,-1.96294 -4.0413,-1.96289 -6.75474,-5.25363 -2.71338,-3.34847 -4.09897,-7.67839 -1.32786,-4.38765 -1.32786,-9.17945 0,-3.233 0.63509,-6.81242 0.63503,-3.63715 1.90515,-7.10109 1.32785,-3.46395 3.29074,-6.58148 1.96288,-3.17527 4.56086,-5.5423 2.6557,-2.42476 5.88871,-3.81035 3.29074,-1.44327 7.27424,-1.44327 3.23306,0 6.00418,1.03918 2.77118,1.03917 4.7918,2.94432 2.07836,1.84747 3.233,4.50313 1.15465,2.6557 1.15465,5.94644 0,3.57942 -1.78968,7.15883 -1.732,3.57936 -4.84953,6.75468 -3.11753,3.17527 -7.44751,5.65777 -4.27218,2.48245 -9.29486,3.86804 0.86597,1.55879 1.67421,2.59797 0.86597,1.03918 1.732,1.61647 0.86597,0.57736 1.78968,0.8083 0.98144,0.23083 2.07835,0.23083 3.46395,0 7.2743,-1.38559 3.86804,-1.38559 7.50519,-3.46395 3.63715,-2.07835 6.87015,-4.50312 3.233,-2.4825 5.48457,-4.67633 l 7.4475,7.73613 q -5.08047,5.25368 -10.79598,9.29492 -2.4825,1.732 -5.36909,3.40621 -2.82892,1.67426 -6.00418,3.00206 -3.11754,1.27012 -6.52375,2.07835 -3.34847,0.75056 -6.81241,0.75056 z m -7.67839,-27.13421 q 2.07835,0 4.50312,-1.03917 2.4825,-1.09692 4.56085,-2.77118 2.1361,-1.67421 3.57942,-3.63715 1.44327,-1.96289 1.44327,-3.8103 0,-2.59797 -0.98144,-4.27224 -0.92371,-1.67421 -2.3093,-1.67421 -2.4825,0 -4.27218,0.92371 -1.73195,0.92371 -2.94433,2.42477 -1.15465,1.44332 -1.90521,3.34847 -0.69276,1.84741 -1.09691,3.75262 -0.34652,1.90515 -0.46165,3.69483 -0.1157,1.78973 -0.1157,3.05985 z"
         inkscape:connector-curvature="0" />
      <path
         id="path3603"
         style="font-style:normal;font-variant:normal;font-weight:normal;font-stretch:normal;font-size:medium;line-height:125%;font-family:Pacifico;-inkscape-font-specification:Pacifico;letter-spacing:0px;word-spacing:0px;fill:#000000;fill-opacity:1;stroke:none;stroke-width:1px;stroke-linecap:butt;stroke-linejoin:miter;stroke-opacity:1"
         d="m 322.96304,-232.88436 q -0.4038,2.48251 -0.9237,5.25368 -0.51951,2.77113 -0.98144,5.5423 -0.46166,2.77113 -0.80824,5.3691 -0.28868,2.59797 -0.28868,4.67633 0,2.02062 0.46166,3.52168 0.46165,1.501 1.501,2.54023 1.09691,1.03918 2.88665,1.61648 1.84741,0.5195 4.56086,0.57735 2.25156,0.0578 3.29074,1.96288 1.03917,1.90515 1.03917,4.50312 0,1.73195 -0.46165,3.57942 -0.46166,1.78968 -1.38553,3.29074 -0.86603,1.44332 -2.19383,2.36703 -1.27012,0.92371 -2.88665,0.92371 -2.71344,0 -4.67633,0.9237 -1.96288,0.86598 -3.34847,2.3093 -1.32785,1.38559 -2.13609,3.11753 -0.7505,1.67427 -0.98144,3.23301 -0.63503,3.63715 -1.15465,6.92789 -0.51951,3.29074 -1.09691,6.92789 -0.92371,5.65777 -3.00207,10.39183 -2.07841,4.73406 -5.08047,8.14027 -2.94433,3.46395 -6.63921,5.36909 -3.69489,1.96289 -7.8516,1.96289 -1.09691,0 -3.17527,-0.28868 -2.07835,-0.23082 -4.56086,-0.7505 -2.4825,-0.5195 -5.08047,-1.38559 -2.59792,-0.80823 -4.73401,-1.96288 -2.07841,-1.15465 -3.40621,-2.65571 -1.32785,-1.44332 -1.32785,-3.29074 0,-2.25156 0.80824,-3.92582 0.86597,-1.61648 2.07835,-2.71339 1.21239,-1.03918 2.54024,-1.5588 1.32785,-0.5195 2.3093,-0.5195 1.78967,0 3.29073,0.63509 1.50106,0.69276 3.00207,1.501 1.55879,0.80829 3.17527,1.44333 1.67426,0.69276 3.75262,0.69276 1.84747,0 3.34847,-0.80824 1.50106,-0.7505 2.77118,-2.82885 1.27012,-2.07841 2.25156,-5.65777 1.03918,-3.57942 1.96288,-9.17945 0.63503,-3.86809 1.44333,-7.90933 0.80823,-4.0413 2.25156,-7.50519 1.44327,-3.46394 3.75256,-5.94645 2.36703,-2.4825 6.06192,-3.29073 -2.3093,-0.86603 -3.86809,-2.3093 -1.501,-1.44332 -2.42471,-3.34847 -0.92377,-1.90521 -1.32786,-4.21451 -0.34652,-2.30924 -0.34652,-4.84947 0,-3.05986 0.40437,-6.58148 0.40438,-3.57942 0.92371,-6.98562 0.5195,-3.46395 0.92371,-6.46601 0.40437,-3.00212 0.40437,-5.02274 0,-2.36703 -0.40437,-3.92583 -0.34653,-1.55873 -1.03918,-2.42471 -0.69277,-0.92376 -1.73194,-1.27012 -1.03924,-0.34652 -2.36704,-0.34652 -2.07841,0 -4.50312,0.28868 -2.36703,0.28867 -4.67632,0.63503 -2.25157,0.34652 -4.32992,0.63508 -2.02068,0.28868 -3.40621,0.28868 -1.21238,0 -2.13609,-0.46165 -0.86603,-0.46166 -1.50106,-1.21239 -0.63509,-0.80829 -0.98144,-1.78973 -0.28868,-0.98145 -0.28868,-2.07836 0,-1.55874 0.7505,-3.0598 0.75056,-1.50106 2.25156,-2.4825 3.11759,-1.90515 6.58148,-3.00206 3.52168,-1.09691 6.87015,-1.67427 3.40621,-0.57729 6.3506,-0.69276 3.00206,-0.17298 5.08042,-0.17298 3.52167,0 6.29285,1.38559 2.77112,1.32779 4.67633,3.8103 1.96289,2.4825 2.94433,6.00418 1.03918,3.46394 1.03918,7.79386 0,3.0598 -0.51951,6.40827 z"
         inkscape:connector-curvature="0" />
    </g>
    <path
       style="font-size:36.9956px;line-height:1.2;font-family:Pacifico;-inkscape-font-specification:Pacifico;text-align:center;letter-spacing:0px;word-spacing:0px;text-anchor:middle;fill:#4e9a06;stroke-width:17.7694;stroke-linecap:round;stroke-linejoin:round"
       d="m 480.51568,405.87179 q 0.57878,-0.10535 0.94364,0.2989 0.40938,0.39619 0.50247,1.20303 0.1773,1.53683 -0.57103,2.53613 -1.813,2.40922 -3.84382,4.11278 -1.98627,1.69546 -4.7466,2.19812 -2.27057,0.41347 -3.5567,-0.48995 -1.29055,-0.94183 -1.53883,-3.09339 -0.12419,-1.07577 0.17992,-3.95558 0.29948,-2.5259 0.19308,-3.44798 -0.0709,-0.61473 -0.56067,-0.52556 -0.57879,0.10537 -1.49656,1.60627 -0.9222,1.46246 -1.74687,3.77019 -0.82466,2.30771 -1.22203,4.77297 -0.49124,3.2277 -3.83035,3.83576 -1.33561,0.24323 -1.87394,-0.48255 -0.49822,-0.7723 -0.74652,-2.92386 -0.14187,-1.22946 -0.18157,-1.96756 l -0.31015,-3.08177 q -0.68277,-5.91679 -0.043,-12.58438 0.6843,-6.67569 2.8991,-11.51178 2.25491,-4.8826 6.08375,-5.57982 2.04797,-0.37295 3.47191,0.93688 1.46402,1.2633 1.74334,3.68379 0.44779,3.8805 -1.69571,8.5467 -2.14795,4.62776 -7.42641,11.27703 0.0969,2.02221 0.34082,4.13534 1.09235,-3.5333 2.63823,-5.8939 1.58597,-2.4071 3.22032,-3.60696 1.67888,-1.20799 3.14807,-1.47553 2.89391,-0.52697 3.18208,1.97038 0.17293,1.4984 -0.35433,5.59568 -0.46019,3.49665 -0.33607,4.57243 0.17741,1.53682 1.46847,1.30171 0.89043,-0.16215 1.98609,-1.30313 1.13576,-1.18753 2.93991,-3.6736 0.47218,-0.63519 1.14,-0.75679 z m -15.96273,-21.33613 q -0.8014,0.14589 -1.55034,2.32217 -0.75334,2.13781 -1.29814,5.68907 -0.50471,3.50476 -0.62682,7.56747 2.43665,-3.30735 3.83623,-6.93584 1.44409,-3.63655 1.13375,-6.32601 -0.14189,-1.22946 -0.5289,-1.82587 -0.38701,-0.5964 -0.96578,-0.49099 z m 35.9366,14.40376 q 0.57878,-0.10537 0.94807,0.33731 0.36928,0.44272 0.45796,1.21114 0.21281,1.84419 -1.03841,2.42509 -2.57818,1.29327 -5.77041,1.99226 -0.4735,3.38138 -2.74058,5.79485 -2.27151,2.37504 -5.43253,2.95065 -2.67129,0.48645 -4.71428,-0.27914 -1.99847,-0.77371 -3.19074,-2.43955 -1.19228,-1.66581 -1.44055,-3.81738 -0.33696,-2.91997 0.69259,-5.4219 1.0251,-2.54036 3.14939,-4.22171 2.11984,-1.71979 4.88016,-2.22243 3.38363,-0.61618 5.66659,1.04721 2.32304,1.61682 3.02059,4.51037 2.07921,-0.49631 4.89772,-1.67643 0.3473,-0.14173 0.61443,-0.19037 z m -13.68968,10.57386 q 1.4247,-0.25939 2.33341,-1.44485 0.95322,-1.19351 1.09216,-3.14098 -1.47327,-0.55552 -2.38087,-1.72399 -0.86309,-1.1766 -1.03155,-2.63658 -0.071,-0.61473 -0.008,-1.25379 l -0.22261,0.0405 q -1.78084,0.32428 -2.81003,2.04159 -0.98906,1.67078 -0.67872,4.36022 0.24386,2.11314 1.30735,3.0571 1.10804,0.93583 2.39917,0.70073 z m 33.76881,-14.23026 q 0.57878,-0.10536 0.94806,0.33733 0.36929,0.44272 0.45795,1.21112 0.21284,1.84419 -1.0384,2.4251 -2.5782,1.29327 -5.7704,1.99226 -0.47351,3.38137 -2.7406,5.79484 -2.2715,2.37505 -5.4325,2.95066 -2.6713,0.48644 -4.71428,-0.27914 -1.99848,-0.77369 -3.19075,-2.43953 -1.19228,-1.66583 -1.44057,-3.81741 -0.33694,-2.91996 0.69259,-5.42189 1.02513,-2.54036 3.1494,-4.22171 2.11985,-1.71979 4.88018,-2.22243 3.38361,-0.61616 5.66657,1.04719 2.32305,1.61684 3.02061,4.51038 2.0792,-0.49628 4.8977,-1.67642 0.3473,-0.14172 0.61444,-0.19036 z m -13.68971,10.57385 q 1.42471,-0.25937 2.33341,-1.44483 0.95327,-1.19352 1.09217,-3.14098 -1.47325,-0.55552 -2.38086,-1.724 -0.86308,-1.17659 -1.03156,-2.63657 -0.0709,-0.61474 -0.008,-1.25379 l -0.22263,0.0405 q -1.78084,0.32429 -2.81,2.0416 -0.98909,1.67078 -0.67875,4.36023 0.24388,2.11314 1.30738,3.05709 1.10803,0.93584 2.39914,0.70072 z m 27.64114,-9.81923 q 0.85329,3.06131 2.14292,5.96471 0.2357,0.46705 0.29778,1.00493 0.19949,1.72895 -2.24915,2.17484 -1.38017,0.25136 -2.2124,-0.264 -0.7877,-0.52344 -1.61939,-2.21571 l -0.0623,-0.14557 q -1.48344,2.11385 -2.79266,2.9799 -1.2647,0.85795 -3.04557,1.18225 -2.71578,0.49454 -4.69615,-0.91009 -1.94028,-1.45118 -2.26392,-4.25589 -0.35469,-3.07366 0.85756,-5.96192 1.21226,-2.88825 3.64836,-5.01867 2.43168,-2.16885 5.64183,-3.10647 0.007,-7.41555 1.74692,-13.22414 1.78345,-5.81669 5.74587,-6.53824 1.91441,-0.34862 3.33391,0.92278 1.46403,1.2633 1.81427,4.29854 0.4877,4.22628 -1.26474,10.31192 -1.75241,6.08564 -5.0232,12.80083 z m 1.08449,-24.47967 q -1.29113,0.23511 -1.79252,6.13218 -0.45687,5.88894 -0.0861,12.64712 3.87783,-10.12089 3.21279,-15.884 -0.16844,-1.45998 -0.57322,-2.21007 -0.36025,-0.75819 -0.76093,-0.68523 z m -9.51474,30.99676 q 0.89044,-0.16215 1.62531,-0.88437 0.77942,-0.73037 1.87987,-2.61757 -0.76885,-2.72362 -1.11467,-5.72045 -0.1374,-1.19104 -0.16827,-1.8523 -2.37774,1.06063 -3.7278,3.54247 -1.35005,2.48185 -1.04413,5.13287 0.32365,2.80472 2.54971,2.39935 z"
       id="text1"
       aria-label="hood" />
  </g>
</svg>
